<?xml version="1.0" encoding="UTF-8" standalone="no"?>
<svg
   height="15.2"
   viewBox="0 -960 729.59999 729.59999"
   width="15.2"
   fill="#5f6368"
   version="1.1"
   id="svg1"
   sodipodi:docname="heladera.svg"
   inkscape:version="1.3.2 (091e20ef0f, 2023-11-25)"
   xmlns:inkscape="http://www.inkscape.org/namespaces/inkscape"
   xmlns:sodipodi="http://sodipodi.sourceforge.net/DTD/sodipodi-0.dtd"
   xmlns="http://www.w3.org/2000/svg"
   xmlns:svg="http://www.w3.org/2000/svg">
  <defs
     id="defs1" />
  <sodipodi:namedview
     id="namedview1"
     pagecolor="#ffffff"
     bordercolor="#000000"
     borderopacity="0.25"
     inkscape:showpageshadow="2"
     inkscape:pageopacity="0.0"
     inkscape:pagecheckerboard="0"
     inkscape:deskcolor="#d1d1d1"
     inkscape:zoom="16"
     inkscape:cx="-6.21875"
     inkscape:cy="6.15625"
     inkscape:window-width="2560"
     inkscape:window-height="1011"
     inkscape:window-x="0"
     inkscape:window-y="0"
     inkscape:window-maximized="1"
     inkscape:current-layer="svg1" />
  <path
     d="m 220.24799,-747.90699 v -110.94586 h 33.93488 v 110.94586 z m 0,318.79703 v -150.42698 h 33.93488 v 150.42698 z m -58.39982,198.70995 q -24.23162,0 -42.14288,-17.52949 -17.90065,-17.54009 -17.90065,-42.51405 v -609.51293 q 0,-24.97395 17.90065,-42.51404 17.91126,-17.52949 42.14288,-17.52949 H 567.7518 q 24.23163,0 42.14289,17.52949 17.90065,17.54009 17.90065,42.51404 v 609.51293 q 0,24.97396 -17.90065,42.51405 -17.91126,17.52949 -42.14289,17.52949 z m 0,-33.93488 H 567.7518 q 11.42121,0 18.77023,-7.33842 7.33842,-7.34903 7.33842,-18.77024 V -646.75982 H 135.73952 v 356.31627 q 0,11.42121 7.33842,18.77024 7.34903,7.33842 18.77023,7.33842 z m -26.10865,-416.35982 h 458.12093 v -219.26177 q 0,-11.4212 -7.33842,-18.77023 -7.34902,-7.33842 -18.77023,-7.33842 H 161.84817 q -11.4212,0 -18.77023,7.33842 -7.33842,7.34903 -7.33842,18.77023 z"
     id="path1"
     style="stroke-width:1.06047;fill:#464a53;fill-opacity:1" />
  <path
     style="fill:none;fill-opacity:1;stroke-width:53.85599994;stroke:none;stroke-dasharray:none;stroke-linejoin:bevel;stroke-linecap:square;paint-order:normal"
     d="m 161.84815,-264.33489 h 405.9037 q 11.4212,0 18.7702,-7.33842 7.3384,-7.34903 7.3384,-18.77024 V -646.75982 H 135.73954 v 356.31627 q 0,11.42121 7.33841,18.77024 7.349,7.33842 18.7702,7.33842 z"
     id="path4" />
</svg>
